<?xml version="1.0" encoding="utf-8"?>
<!-- Generator: Adobe Illustrator 16.0.3, SVG Export Plug-In . SVG Version: 6.00 Build 0)  -->
<!DOCTYPE svg PUBLIC "-//W3C//DTD SVG 1.1//EN" "http://www.w3.org/Graphics/SVG/1.1/DTD/svg11.dtd">
<svg version="1.1" id="Layer_2" xmlns="http://www.w3.org/2000/svg" xmlns:xlink="http://www.w3.org/1999/xlink" x="0px" y="0px"
	 width="163px" height="65px" viewBox="0 0 163 65" enable-background="new 0 0 163 65" xml:space="preserve">
<g>
	<path fill="#FFFFFF" d="M15.643,42.117h-3.875v-8.193c0-1.223-0.034-2.277-0.272-3.093c-0.34-1.156-1.19-1.87-2.855-1.87
		c-2.414,0-3.57,1.87-3.57,4.488v8.668H1.195V19H5.07v9.009c0.748-1.428,2.583-2.482,5.031-2.482c1.836,0,3.366,0.544,4.454,2.006
		c0.748,1.054,1.088,2.278,1.088,5.405V42.117z"/>
	<path fill="#FFFFFF" d="M28.254,42.254c-0.748,0.17-1.734,0.271-2.89,0.271c-1.563,0-3.195-0.307-4.079-1.395
		c-0.646-0.781-0.68-1.699-0.68-3.264v-8.906h-3.468v-3.025h3.468v-5.644l3.875-0.85v6.494h3.774v3.025H24.48v8.262
		c0,0.918,0.136,1.359,0.442,1.666c0.306,0.34,0.952,0.441,1.632,0.441c0.68,0,1.292-0.068,1.7-0.137V42.254z"/>
	<path fill="#FFFFFF" d="M44.08,28.043c0.986-1.19,2.618-2.516,5.542-2.516c2.074,0,3.434,0.612,4.284,1.564
		c1.02,1.156,1.428,2.278,1.428,5.847v9.179h-3.875v-8.193c0-2.923-0.204-4.963-3.128-4.963c-2.414,0-3.501,1.87-3.501,4.488v8.668
		h-3.875v-8.193c0-2.923-0.204-4.963-3.128-4.963c-2.38,0-3.501,1.87-3.501,4.488v8.668h-3.875V25.936h3.875v2.074
		c0.782-1.36,2.516-2.482,5.065-2.482c1.666,0,3.06,0.51,4.012,1.564C43.672,27.397,43.876,27.703,44.08,28.043z"/>
	<path fill="#FFFFFF" d="M62.835,42.117H58.96V19h3.875V42.117z"/>
	<path fill="#F7FF33" d="M91.053,25.969l8.057,8.057l-8.057,8.091h-4.828l6.664-6.391H74.564v-3.4h18.29l-6.629-6.357H91.053z"/>
	<path fill="#FFFFFF" d="M114.377,40.418v8.158h-3.875V25.936h3.875v1.768c0.884-1.156,2.652-2.176,4.759-2.176
		c4.386,0,7.173,3.536,7.173,8.567c0,4.86-2.855,8.431-7.173,8.431C116.96,42.525,115.397,41.676,114.377,40.418z M118.32,39.16
		c2.482,0,4.114-1.938,4.114-5.134c0-3.264-1.632-5.167-4.114-5.167c-2.448,0-4.113,2.04-4.113,5.167
		C114.207,37.154,115.873,39.16,118.32,39.16z"/>
	<path fill="#FFFFFF" d="M128.998,25.936h3.876v8.602c0,1.154,0.033,2.277,0.407,3.127s1.122,1.428,2.482,1.428
		c2.413,0,3.468-1.869,3.468-4.488v-8.668h3.875v16.182h-3.875v-2.074c-0.782,1.361-2.517,2.482-4.828,2.482
		c-1.632,0-3.025-0.51-3.978-1.564c-1.02-1.156-1.428-2.277-1.428-5.848V25.936z"/>
	<path fill="#FFFFFF" d="M150.314,42.898c0.17,1.496,0.85,2.924,3.637,2.924c2.924,0,3.979-1.189,3.979-4.248v-1.463h-0.035
		c-0.543,0.748-1.902,2.074-4.76,2.074c-4.384,0-7.138-3.195-7.138-8.125c0-5.1,2.651-8.533,7.105-8.533
		c2.244,0,3.943,1.02,4.828,2.176v-1.768h3.875v15.264c0,1.734-0.137,2.855-0.51,3.875c-1.02,2.721-3.502,3.773-7.479,3.773
		c-4.863,0-7.276-2.176-7.413-5.643L150.314,42.898z M153.986,28.859c-2.619,0-4.115,1.802-4.115,5.065
		c0,3.23,1.496,4.998,4.115,4.998c2.582,0,4.113-1.869,4.113-4.998C158.1,30.797,156.568,28.859,153.986,28.859z"/>
</g>
</svg>
